<?xml version="1.0" encoding="utf-8"?>
<!-- Created by UniConvertor 2.0rc5 (https://sk1project.net/) -->
<svg xmlns="http://www.w3.org/2000/svg" height="237.0px" width="431.0px" version="1.1" xmlns:xlink="http://www.w3.org/1999/xlink" id="75a6b898-cf93-11ec-b2c3-a8a1598cb569">

<g>
	<path style="fill:#ffffff;" d="M 0.0,0.0 L 0.0,237.0 431.0,237.0 431.0,0.0 0.0,0.0 Z" />
	<path style="fill:#dfecfb;" d="M 277.0,31.0 L 277.0,78.0 C 277.0,85.0383 275.033,92.7056 284.0,93.0 L 284.0,92.0 278.0,92.0 278.0,51.0 C 278.0,44.846 279.395,36.7073 277.0,31.0 Z" />
	<path style="fill:#84c5f2;" d="M 278.0,31.0 L 278.0,92.0 279.0,92.0 279.0,32.0 284.0,32.0 C 281.948,31.1257 280.253,31.0472 278.0,31.0 Z" />
	<path style="fill:#bddef7;" d="M 284.0,31.0 C 284.0,36.8678 281.435,51.0106 286.0,55.0 284.177,47.3419 287.002,38.1537 284.0,31.0 Z" />
	<path style="fill:#41aeeb;" d="M 279.0,32.0 L 279.0,92.0 284.0,92.0 C 284.0,78.477 282.746,67.7671 290.0,56.0 287.821,55.2736 288.22,55.5605 289.0,54.0 L 284.0,55.0 284.0,32.0 279.0,32.0 Z" />
	<path style="fill:#dfecfb;" d="M 104.0,33.0 L 104.0,78.0 C 104.0,85.0383 102.033,92.7056 111.0,93.0 L 111.0,92.0 105.0,92.0 105.0,52.0 C 105.0,46.113 106.292,38.4625 104.0,33.0 Z" />
	<path style="fill:#6bcaf0;" d="M 105.0,33.0 L 105.0,92.0 106.0,92.0 106.0,52.0 C 106.0,46.113 107.292,38.4625 105.0,33.0 Z" />
	<path style="fill:#2cb6eb;" d="M 106.0,33.0 L 106.0,92.0 111.0,92.0 111.0,47.0 C 117.18,54.4655 121.71,63.6258 126.576,72.0 128.118,74.6552 130.232,80.3642 133.989,80.3642 137.603,80.3642 139.866,74.5545 141.4,72.0 146.226,63.9609 150.321,53.5883 157.0,47.0 L 157.0,92.0 162.0,92.0 162.0,33.0 C 155.801,33.4785 153.931,38.0293 151.011,43.0 145.544,52.3071 138.697,61.8435 135.0,72.0 L 133.0,72.0 C 129.159,61.8525 122.125,52.3372 116.603,43.0 113.665,38.0316 112.291,33.4856 106.0,33.0 Z" />
	<path style="fill:#6bcaf0;" d="M 162.0,33.0 L 162.0,92.0 163.0,92.0 163.0,52.0 C 163.0,46.113 164.292,38.4625 162.0,33.0 Z" />
	<path style="fill:#dfecfb;" d="M 163.0,33.0 L 163.0,92.0 164.0,92.0 164.0,52.0 C 164.0,46.113 165.292,38.4625 163.0,33.0 Z" />
	<path style="fill:#9ac9f3;" d="M 242.0,34.0 L 242.0,48.0 236.0,48.0 236.0,54.0 237.0,54.0 237.0,49.0 C 244.371,48.4257 244.41,39.7442 242.0,34.0 Z" />
	<path style="fill:#41aeeb;" d="M 243.0,34.0 C 243.0,40.1553 244.672,47.7765 237.0,49.0 L 237.0,54.0 243.0,54.0 C 243.0,67.5634 237.349,101.87 261.0,90.0 L 260.0,85.0 C 242.466,88.9946 248.0,66.1147 248.0,54.0 L 258.0,54.0 258.0,49.0 C 247.251,48.9621 248.0,43.1631 248.0,34.0 L 243.0,34.0 Z" />
	<path style="fill:#a2ddf6;" d="M 248.0,34.0 L 248.0,48.0 249.0,48.0 C 249.0,43.4589 249.769,38.2165 248.0,34.0 Z" />
	<path style="fill:#bddef7;" d="M 112.0,35.0 L 113.0,36.0 112.0,35.0 Z" />
	<path style="fill:#a2ddf6;" d="M 155.0,35.0 L 156.0,36.0 155.0,35.0 M 113.0,37.0 L 114.0,38.0 113.0,37.0 M 154.0,37.0 L 155.0,38.0 154.0,37.0 M 114.0,39.0 L 115.0,40.0 114.0,39.0 Z" />
	<path style="fill:#bddef7;" d="M 152.0,40.0 L 153.0,41.0 152.0,40.0 Z" />
	<path style="fill:#6bcaf0;" d="M 115.0,41.0 L 116.0,42.0 115.0,41.0 Z" />
	<path style="fill:#a2ddf6;" d="M 116.0,42.0 L 117.0,43.0 116.0,42.0 M 151.0,42.0 L 152.0,43.0 151.0,42.0 M 117.0,44.0 L 118.0,45.0 117.0,44.0 Z" />
	<path style="fill:#84c5f2;" d="M 118.0,46.0 L 119.0,47.0 118.0,46.0 Z" />
	<path style="fill:#a2ddf6;" d="M 111.0,47.0 L 111.0,92.0 112.0,92.0 112.0,61.0 C 112.0,56.5978 113.207,50.8175 111.0,47.0 Z" />
	<path style="fill:#bddef7;" d="M 119.0,47.0 L 120.0,48.0 119.0,47.0 Z" />
	<path style="fill:#a2ddf6;" d="M 148.0,47.0 L 149.0,48.0 148.0,47.0 M 155.0,47.0 C 157.685,61.4617 156.0,77.3159 156.0,92.0 L 157.0,92.0 157.0,59.0 C 157.0,55.1096 158.112,49.7193 155.0,47.0 Z" />
	<path style="fill:#dfecfb;" d="M 199.0,47.0 L 199.0,48.0 205.0,48.0 C 202.948,47.1257 201.253,47.0472 199.0,47.0 Z" />
	<path style="fill:#bddef7;" d="M 297.0,47.0 L 297.0,48.0 303.0,48.0 C 300.948,47.1257 299.253,47.0472 297.0,47.0 Z" />
	<path style="fill:#9ac9f3;" d="M 195.667,48.3333 C 195.222,48.7778 196.278,48.7222 196.333,48.6667 196.778,48.2222 195.722,48.2778 195.667,48.3333 Z" />
	<path style="fill:#41aeeb;" d="M 187.0,58.0 C 197.972,54.8403 212.468,49.0822 213.0,67.0 205.475,66.4061 197.178,64.4779 190.04,68.0501 181.214,72.4675 181.007,84.9195 189.019,90.2724 196.817,95.4829 203.172,89.9706 211.0,89.6296 213.984,89.4996 217.011,91.558 220.0,92.0 219.384,82.3066 221.037,59.1822 213.856,52.2245 207.592,46.1565 184.946,45.6704 187.0,58.0 Z" />
	<path style="fill:#dfecfb;" d="M 207.667,48.3333 C 207.222,48.7778 208.278,48.7222 208.333,48.6667 208.778,48.2222 207.722,48.2778 207.667,48.3333 Z" />
	<path style="fill:#9ac9f3;" d="M 249.0,48.0 L 249.0,49.0 258.0,49.0 C 255.11,47.787 252.126,48.0017 249.0,48.0 Z" />
	<path style="fill:#bddef7;" d="M 258.0,48.0 L 258.0,54.0 259.0,54.0 C 258.953,51.7472 258.874,50.0521 258.0,48.0 Z" />
	<path style="fill:#84c5f2;" d="M 294.667,48.3333 C 294.222,48.7777 295.278,48.7223 295.333,48.6667 295.778,48.2221 294.722,48.2778 294.667,48.3333 Z" />
	<path style="fill:#639eeb;" d="M 287.0,54.0 C 289.179,54.7264 288.78,54.4395 288.0,56.0 292.364,56.0525 296.598,53.0262 300.96,54.3218 313.285,57.9828 309.0,82.4837 309.0,92.0 L 314.0,92.0 C 314.0,80.983 316.819,65.1238 311.686,55.0046 306.75,45.2738 293.194,46.5979 287.0,54.0 Z" />
	<path style="fill:#bddef7;" d="M 304.667,48.3333 C 304.222,48.7778 305.278,48.7222 305.333,48.6667 305.778,48.2221 304.722,48.2778 304.667,48.3333 Z" />
	<path style="fill:#6bcaf0;" d="M 113.0,49.0 L 114.0,50.0 113.0,49.0 Z" />
	<path style="fill:#a2ddf6;" d="M 120.0,49.0 L 121.0,50.0 120.0,49.0 M 147.0,49.0 L 148.0,50.0 147.0,49.0 M 154.0,49.0 L 155.0,50.0 154.0,49.0 Z" />
	<path style="fill:#bddef7;" d="M 190.0,50.0 L 191.0,51.0 190.0,50.0 Z" />
	<path style="fill:#9ac9f3;" d="M 290.0,50.0 L 291.0,51.0 290.0,50.0 M 308.0,50.0 L 309.0,51.0 308.0,50.0 Z" />
	<path style="fill:#a2ddf6;" d="M 114.0,51.0 L 115.0,52.0 114.0,51.0 M 121.0,51.0 L 122.0,52.0 121.0,51.0 Z" />
	<path style="fill:#9ac9f3;" d="M 309.0,51.0 L 310.0,52.0 309.0,51.0 Z" />
	<path style="fill:#bddef7;" d="M 145.0,52.0 L 146.0,53.0 145.0,52.0 Z" />
	<path style="fill:#9ac9f3;" d="M 287.0,52.0 L 288.0,53.0 287.0,52.0 Z" />
	<path style="fill:#bdc9f5;" d="M 310.0,52.0 L 311.0,53.0 310.0,52.0 Z" />
	<path style="fill:#6bcaf0;" d="M 122.0,53.0 L 123.0,54.0 122.0,53.0 M 185.333,53.6667 C 185.278,53.7222 185.222,54.7778 185.667,54.3333 185.722,54.2778 185.778,53.2222 185.333,53.6667 Z" />
	<path style="fill:#84c5f2;" d="M 198.667,53.3333 C 198.222,53.7778 199.278,53.7222 199.333,53.6667 199.778,53.2222 198.722,53.2778 198.667,53.3333 Z" />
	<path style="fill:#bddef7;" d="M 200.0,53.0 L 200.0,54.0 203.0,54.0 C 201.752,53.3152 201.452,53.2512 200.0,53.0 Z" />
	<path style="fill:#6bcaf0;" d="M 203.667,53.3333 C 203.222,53.7778 204.278,53.7222 204.333,53.6667 204.778,53.2222 203.722,53.2778 203.667,53.3333 Z" />
	<path style="fill:#9ac9f3;" d="M 286.0,53.0 L 287.0,54.0 286.0,53.0 Z" />
	<path style="fill:#84c5f2;" d="M 298.667,53.3333 C 298.222,53.7777 299.278,53.7223 299.333,53.6667 299.778,53.2221 298.722,53.2779 298.667,53.3333 Z" />
	<path style="fill:#6bcaf0;" d="M 116.0,54.0 L 117.0,55.0 116.0,54.0 Z" />
	<path style="fill:#a2ddf6;" d="M 123.0,54.0 L 124.0,55.0 123.0,54.0 M 144.0,54.0 L 145.0,55.0 144.0,54.0 Z" />
	<path style="fill:#84c5f2;" d="M 151.0,54.0 L 152.0,55.0 151.0,54.0 Z" />
	<path style="fill:#dfecfb;" d="M 195.667,54.3333 C 195.222,54.7778 196.278,54.7222 196.333,54.6667 196.778,54.2222 195.722,54.2778 195.667,54.3333 Z" />
	<path style="fill:#bddef7;" d="M 206.0,54.0 L 207.0,55.0 206.0,54.0 Z" />
	<path style="fill:#9ac9f3;" d="M 242.0,54.0 L 242.0,87.0 243.0,87.0 C 243.0,77.3992 245.711,62.8444 242.0,54.0 Z" />
	<path style="fill:#a2ddf6;" d="M 248.0,54.0 L 248.0,85.0 249.0,85.0 C 249.0,75.9238 251.511,62.3668 248.0,54.0 Z" />
	<path style="fill:#dfecfb;" d="M 294.667,54.3333 C 294.222,54.7777 295.278,54.7223 295.333,54.6667 295.778,54.2221 294.722,54.2778 294.667,54.3333 Z" />
	<path style="fill:#bddef7;" d="M 302.0,54.0 L 303.0,55.0 302.0,54.0 Z" />
	<path style="fill:#a2ddf6;" d="M 208.0,55.0 L 209.0,56.0 208.0,55.0 Z" />
	<path style="fill:#9ac9f3;" d="M 304.0,55.0 L 305.0,56.0 304.0,55.0 M 312.333,55.6667 C 312.278,55.7223 312.222,56.7777 312.667,56.3333 312.722,56.2779 312.778,55.2222 312.333,55.6667 Z" />
	<path style="fill:#a2ddf6;" d="M 117.0,56.0 L 118.0,57.0 117.0,56.0 M 124.0,56.0 L 125.0,57.0 124.0,56.0 Z" />
	<path style="fill:#84c5f2;" d="M 186.0,56.0 L 187.0,57.0 186.0,56.0 Z" />
	<path style="fill:#a2ddf6;" d="M 191.0,56.0 L 192.0,57.0 191.0,56.0 Z" />
	<path style="fill:#bddef7;" d="M 209.0,56.0 L 210.0,57.0 209.0,56.0 Z" />
	<path style="fill:#9ac9f3;" d="M 189.0,57.0 L 190.0,58.0 189.0,57.0 Z" />
	<path style="fill:#a2ddf6;" d="M 210.0,57.0 L 211.0,58.0 210.0,57.0 Z" />
	<path style="fill:#6bcaf0;" d="M 217.333,57.6667 C 217.278,57.7222 217.222,58.7778 217.667,58.3333 217.722,58.2777 217.778,57.2223 217.333,57.6667 Z" />
	<path style="fill:#a2ddf6;" d="M 289.0,57.0 L 290.0,58.0 289.0,57.0 Z" />
	<path style="fill:#bddef7;" d="M 313.333,57.6667 C 313.278,57.7223 313.222,58.7777 313.667,58.3333 313.722,58.2778 313.778,57.2222 313.333,57.6667 M 187.667,58.3333 C 187.222,58.7778 188.278,58.7222 188.333,58.6667 188.778,58.2222 187.722,58.2778 187.667,58.3333 M 288.0,58.0 L 289.0,59.0 288.0,58.0 M 126.0,59.0 L 127.0,60.0 126.0,59.0 Z" />
	<path style="fill:#a2ddf6;" d="M 141.0,59.0 L 142.0,60.0 141.0,59.0 Z" />
	<path style="fill:#6bcaf0;" d="M 148.0,59.0 L 149.0,60.0 148.0,59.0 Z" />
	<path style="fill:#a2ddf6;" d="M 218.333,59.6667 C 218.278,59.7222 218.222,60.7778 218.667,60.3333 218.722,60.2777 218.778,59.2222 218.333,59.6667 Z" />
	<path style="fill:#9ac9f3;" d="M 287.0,59.0 L 288.0,60.0 287.0,59.0 M 313.0,59.0 L 313.0,62.0 314.0,62.0 C 313.749,60.5485 313.685,60.2483 313.0,59.0 Z" />
	<path style="fill:#a2ddf6;" d="M 212.0,60.0 L 212.0,67.0 213.0,67.0 C 212.981,64.4567 212.985,62.3315 212.0,60.0 M 307.333,60.6667 C 307.278,60.7223 307.222,61.7777 307.667,61.3333 307.722,61.2779 307.778,60.2222 307.333,60.6667 Z" />
	<path style="fill:#84c5f2;" d="M 120.0,61.0 L 121.0,62.0 120.0,61.0 Z" />
	<path style="fill:#a2ddf6;" d="M 127.0,61.0 L 128.0,62.0 127.0,61.0 M 140.0,61.0 L 141.0,62.0 140.0,61.0 M 147.0,61.0 L 148.0,62.0 147.0,61.0 Z" />
	<path style="fill:#6bcaf0;" d="M 218.0,61.0 L 218.0,86.0 219.0,86.0 C 219.0,78.503 220.907,67.9279 218.0,61.0 Z" />
	<path style="fill:#dfecfb;" d="M 219.0,61.0 C 219.0,67.1703 216.228,82.8301 221.0,87.0 219.033,78.737 222.24,68.721 219.0,61.0 M 285.333,62.6667 C 285.278,62.7223 285.222,63.7777 285.667,63.3333 285.722,63.2779 285.778,62.2222 285.333,62.6667 M 307.0,62.0 C 307.0,70.6468 302.484,92.6219 314.0,93.0 L 314.0,92.0 308.0,92.0 C 308.0,83.1864 310.411,70.1277 307.0,62.0 Z" />
	<path style="fill:#bddef7;" d="M 314.0,62.0 L 314.0,92.0 315.0,92.0 C 315.0,83.1864 317.411,70.1277 314.0,62.0 Z" />
	<path style="fill:#a2ddf6;" d="M 121.0,63.0 L 122.0,64.0 121.0,63.0 M 128.0,63.0 L 129.0,64.0 128.0,63.0 Z" />
	<path style="fill:#84c5f2;" d="M 308.0,63.0 L 308.0,92.0 309.0,92.0 C 309.0,83.4492 311.31,70.8884 308.0,63.0 Z" />
	<path style="fill:#bddef7;" d="M 138.0,64.0 L 139.0,65.0 138.0,64.0 M 284.0,64.0 L 284.0,92.0 285.0,92.0 C 285.0,83.7122 287.21,71.6488 284.0,64.0 Z" />
	<path style="fill:#6bcaf0;" d="M 129.0,65.0 L 130.0,66.0 129.0,65.0 Z" />
	<path style="fill:#bddef7;" d="M 196.0,65.0 L 196.0,66.0 205.0,66.0 C 202.11,64.7871 199.126,65.0017 196.0,65.0 Z" />
	<path style="fill:#6bcaf0;" d="M 123.0,66.0 L 124.0,67.0 123.0,66.0 Z" />
	<path style="fill:#a2ddf6;" d="M 130.0,66.0 L 131.0,67.0 130.0,66.0 M 137.0,66.0 L 138.0,67.0 137.0,66.0 Z" />
	<path style="fill:#84c5f2;" d="M 144.0,66.0 L 145.0,67.0 144.0,66.0 Z" />
	<path style="fill:#6bcaf0;" d="M 193.667,66.3333 C 193.222,66.7778 194.278,66.7222 194.333,66.6667 194.778,66.2222 193.722,66.2778 193.667,66.3333 Z" />
	<path style="fill:#a2ddf6;" d="M 208.0,66.0 L 208.0,67.0 211.0,67.0 C 209.752,66.3152 209.452,66.2512 208.0,66.0 Z" />
	<path style="fill:#bddef7;" d="M 190.0,67.0 L 191.0,68.0 190.0,67.0 Z" />
	<path style="fill:#a2ddf6;" d="M 124.0,68.0 L 125.0,69.0 124.0,68.0 M 131.0,68.0 L 132.0,69.0 131.0,68.0 Z" />
	<path style="fill:#84c5f2;" d="M 136.0,68.0 L 137.0,69.0 136.0,68.0 Z" />
	<path style="fill:#9ac9f3;" d="M 187.0,69.0 L 188.0,70.0 187.0,69.0 Z" />
	<path style="fill:#6bcaf0;" d="M 126.0,71.0 L 127.0,72.0 126.0,71.0 Z" />
	<path style="fill:#a2ddf6;" d="M 133.667,71.3333 C 133.222,71.7778 134.278,71.7222 134.333,71.6667 134.778,71.2222 133.722,71.2778 133.667,71.3333 Z" />
	<path style="fill:#6bcaf0;" d="M 141.0,71.0 L 142.0,72.0 141.0,71.0 Z" />
	<path style="fill:#84c5f2;" d="M 185.0,71.0 L 186.0,72.0 185.0,71.0 Z" />
	<path style="fill:#bddef7;" d="M 195.667,71.3333 C 195.222,71.7778 196.278,71.7222 196.333,71.6667 196.778,71.2222 195.722,71.2778 195.667,71.3333 Z" />
	<path style="fill:#ffffff;" d="M 212.0,72.0 L 201.0,71.0787 C 175.261,71.13 200.669,100.296 210.972,80.956 212.39,78.2956 211.998,74.9092 212.0,72.0 Z" />
	<path style="fill:#dfecfb;" d="M 205.0,71.0 L 205.0,72.0 208.0,72.0 C 206.752,71.3152 206.452,71.2512 205.0,71.0 Z" />
	<path style="fill:#6bcaf0;" d="M 208.667,71.3333 C 208.222,71.7778 209.278,71.7222 209.333,71.6667 209.778,71.2222 208.722,71.2778 208.667,71.3333 Z" />
	<path style="fill:#a2ddf6;" d="M 184.0,72.0 L 185.0,73.0 184.0,72.0 Z" />
	<path style="fill:#84c5f2;" d="M 127.0,73.0 L 128.0,74.0 127.0,73.0 Z" />
	<path style="fill:#a2ddf6;" d="M 140.0,73.0 L 141.0,74.0 140.0,73.0 M 191.0,73.0 L 192.0,74.0 191.0,73.0 Z" />
	<path style="fill:#bddef7;" d="M 212.0,73.0 L 212.0,80.0 213.0,80.0 C 212.981,77.4567 212.985,75.3315 212.0,73.0 Z" />
	<path style="fill:#6bcaf0;" d="M 183.333,74.6667 C 183.278,74.7222 183.222,75.7778 183.667,75.3333 183.722,75.2778 183.778,74.2222 183.333,74.6667 Z" />
	<path style="fill:#a2ddf6;" d="M 128.0,75.0 L 129.0,76.0 128.0,75.0 M 182.0,75.0 L 182.0,81.0 183.0,81.0 C 182.953,78.7472 182.874,77.0521 182.0,75.0 Z" />
	<path style="fill:#6bcaf0;" d="M 138.0,76.0 L 139.0,77.0 138.0,76.0 Z" />
	<path style="fill:#a2ddf6;" d="M 188.0,76.0 L 188.0,81.0 189.0,81.0 C 188.912,79.0359 188.779,77.7691 188.0,76.0 Z" />
	<path style="fill:#6bcaf0;" d="M 130.0,78.0 L 131.0,79.0 130.0,78.0 Z" />
	<path style="fill:#a2ddf6;" d="M 137.0,78.0 L 138.0,79.0 137.0,78.0 M 131.0,80.0 L 132.0,81.0 131.0,80.0 M 136.0,80.0 L 137.0,81.0 136.0,80.0 M 132.0,81.0 L 132.0,82.0 136.0,82.0 C 134.494,81.317 133.685,81.1741 132.0,81.0 Z" />
	<path style="fill:#dfecfb;" d="M 182.333,81.6667 C 182.278,81.7222 182.222,82.7778 182.667,82.3333 182.722,82.2778 182.778,81.2222 182.333,81.6667 Z" />
	<path style="fill:#a2ddf6;" d="M 211.0,81.0 L 212.0,82.0 211.0,81.0 M 189.0,82.0 L 190.0,83.0 189.0,82.0 Z" />
	<path style="fill:#bddef7;" d="M 210.0,82.0 L 211.0,83.0 210.0,82.0 Z" />
	<path style="fill:#a2ddf6;" d="M 183.333,83.6667 C 183.278,83.7222 183.222,84.7778 183.667,84.3333 183.722,84.2777 183.778,83.2222 183.333,83.6667 Z" />
	<path style="fill:#bddef7;" d="M 209.0,83.0 L 210.0,84.0 209.0,83.0 Z" />
	<path style="fill:#a2ddf6;" d="M 208.0,84.0 L 209.0,85.0 208.0,84.0 M 206.0,85.0 L 207.0,86.0 206.0,85.0 Z" />
	<path style="fill:#84c5f2;" d="M 193.0,86.0 L 194.0,87.0 193.0,86.0 M 203.667,86.3333 C 203.222,86.7778 204.278,86.7222 204.333,86.6667 204.778,86.2222 203.722,86.2778 203.667,86.3333 Z" />
	<path style="fill:#dfecfb;" d="M 250.0,86.0 L 250.0,87.0 255.0,87.0 C 253.231,86.2211 251.964,86.0876 250.0,86.0 Z" />
	<path style="fill:#84c5f2;" d="M 260.333,86.6667 C 260.278,86.7223 260.222,87.7777 260.667,87.3333 260.722,87.2778 260.778,86.2222 260.333,86.6667 Z" />
	<path style="fill:#a2ddf6;" d="M 185.0,87.0 L 186.0,88.0 185.0,87.0 Z" />
	<path style="fill:#84c5f2;" d="M 196.0,87.0 L 196.0,88.0 201.0,88.0 C 199.231,87.2211 197.964,87.0876 196.0,87.0 Z" />
	<path style="fill:#9ac9f3;" d="M 220.0,87.0 L 220.0,92.0 221.0,92.0 C 220.912,90.0359 220.779,88.7691 220.0,87.0 Z" />
	<path style="fill:#84c5f2;" d="M 186.0,88.0 L 187.0,89.0 186.0,88.0 Z" />
	<path style="fill:#9ac9f3;" d="M 243.0,88.0 L 244.0,89.0 243.0,88.0 Z" />
	<path style="fill:#a2ddf6;" d="M 261.333,88.6667 C 261.278,88.7223 261.222,89.7777 261.667,89.3333 261.722,89.2778 261.778,88.2222 261.333,88.6667 M 187.0,89.0 L 188.0,90.0 187.0,89.0 Z" />
	<path style="fill:#84c5f2;" d="M 209.0,89.0 L 210.0,90.0 209.0,89.0 Z" />
	<path style="fill:#bddef7;" d="M 188.0,90.0 L 189.0,91.0 188.0,90.0 Z" />
	<path style="fill:#9ac9f3;" d="M 214.0,90.0 L 215.0,91.0 214.0,90.0 Z" />
	<path style="fill:#a2ddf6;" d="M 190.0,91.0 L 191.0,92.0 190.0,91.0 M 215.0,91.0 L 216.0,92.0 215.0,91.0 Z" />
	<path style="fill:#84c5f2;" d="M 246.0,91.0 L 247.0,92.0 246.0,91.0 Z" />
	<path style="fill:#dfecfb;" d="M 156.0,92.0 L 156.0,93.0 163.0,93.0 C 160.668,92.0155 158.543,92.0187 156.0,92.0 Z" />
	<path style="fill:#a2ddf6;" d="M 192.0,92.0 L 192.0,93.0 195.0,93.0 C 193.752,92.3152 193.452,92.2512 192.0,92.0 Z" />
	<path style="fill:#84c5f2;" d="M 199.0,92.0 L 199.0,93.0 202.0,93.0 C 200.752,92.3152 200.452,92.2512 199.0,92.0 Z" />
	<path style="fill:#dfecfb;" d="M 217.0,92.0 L 217.0,93.0 221.0,93.0 C 219.494,92.317 218.685,92.1741 217.0,92.0 Z" />
	<path style="fill:#84c5f2;" d="M 248.667,92.3333 C 248.222,92.7778 249.278,92.7222 249.333,92.6667 249.778,92.2222 248.722,92.2777 248.667,92.3333 Z" />
	<path style="fill:#a2ddf6;" d="M 254.667,92.3333 C 254.222,92.7778 255.278,92.7222 255.333,92.6667 255.778,92.2222 254.722,92.2777 254.667,92.3333 Z" />
	<path style="fill:#dfecfb;" d="M 79.0,141.0 L 79.0,142.0 86.0,142.0 C 83.6685,141.015 81.5433,141.019 79.0,141.0 M 139.0,141.0 L 139.0,142.0 146.0,142.0 C 143.668,141.015 141.543,141.019 139.0,141.0 M 199.0,141.0 L 199.0,142.0 205.0,142.0 C 202.948,141.126 201.253,141.047 199.0,141.0 M 227.0,141.0 L 227.0,142.0 233.0,142.0 C 230.948,141.126 229.253,141.047 227.0,141.0 M 281.0,141.0 L 281.0,142.0 288.0,142.0 C 285.668,141.015 283.543,141.019 281.0,141.0 M 339.0,141.0 L 339.0,142.0 344.0,142.0 C 342.231,141.221 340.964,141.088 339.0,141.0 Z" />
	<path style="fill:#9ac9f3;" d="M 76.6667,142.333 C 76.2222,142.778 77.2778,142.722 77.3333,142.667 77.7778,142.222 76.7222,142.278 76.6667,142.333 Z" />
	<path style="fill:#639eeb;" d="M 98.0,181.0 C 97.9093,191.142 91.2531,200.392 80.0,198.058 77.4252,197.524 65.5417,189.033 64.9174,193.323 64.3542,197.192 70.0761,200.65 73.0,201.867 81.5224,205.414 93.4941,204.329 99.7215,196.956 103.783,192.147 103.0,185.876 103.0,180.0 L 103.0,143.0 99.0,143.0 99.0,149.0 C 95.1242,146.45 91.6687,143.441 87.0,142.479 56.5868,136.212 55.0563,188.905 84.0,186.471 89.3117,186.024 93.5298,183.663 98.0,181.0 Z" />
	<path style="fill:#bddef7;" d="M 87.6667,142.333 C 87.2222,142.778 88.2778,142.722 88.3333,142.667 88.7778,142.222 87.7222,142.278 87.6667,142.333 Z" />
	<path style="fill:#dfecfb;" d="M 97.0,142.0 L 96.0,148.0 C 98.0932,146.176 98.0395,144.529 97.0,142.0 Z" />
	<path style="fill:#99abf0;" d="M 98.0,142.0 C 97.8905,144.442 97.572,146.623 97.0,149.0 99.0034,147.266 98.923,145.645 99.0,143.0 L 103.0,143.0 103.0,189.0 104.0,189.0 104.0,142.0 98.0,142.0 Z" />
	<path style="fill:#dfecfb;" d="M 104.0,142.0 L 104.0,189.0 105.0,189.0 C 105.0,175.735 109.11,154.177 104.0,142.0 Z" />
	<path style="fill:#bdc9f5;" d="M 135.667,142.333 C 135.222,142.778 136.278,142.722 136.333,142.667 136.778,142.222 135.722,142.278 135.667,142.333 Z" />
	<path style="fill:#8490ec;" d="M 126.0,147.0 L 127.0,152.0 C 138.273,149.422 152.121,142.776 154.0,161.0 145.133,160.3 133.65,157.438 127.0,165.0 134.616,168.049 143.228,162.248 150.852,166.434 154.678,168.534 154.518,174.1 158.0,177.0 158.0,169.195 159.932,158.359 157.106,151.001 151.943,137.556 135.389,142.086 126.0,147.0 Z" />
	<path style="fill:#dfecfb;" d="M 147.667,142.333 C 147.222,142.778 148.278,142.722 148.333,142.667 148.778,142.222 147.722,142.278 147.667,142.333 M 180.0,142.0 L 180.0,173.0 C 180.0,176.318 178.821,182.629 181.028,185.396 183.477,188.467 187.321,186.059 187.852,182.941 189.143,175.365 188.0,166.687 188.0,159.0 L 187.0,159.0 187.0,186.0 181.0,186.0 C 181.0,173.52 184.81,153.463 180.0,142.0 Z" />
	<path style="fill:#99abf0;" d="M 181.0,142.0 L 181.0,186.0 182.0,186.0 182.0,143.0 186.0,143.0 C 186.077,145.645 185.997,147.266 188.0,149.0 187.428,146.623 187.11,144.442 187.0,142.0 L 181.0,142.0 Z" />
	<path style="fill:#8490ec;" d="M 186.0,149.0 L 186.0,143.0 182.0,143.0 182.0,186.0 186.0,186.0 C 186.0,177.541 183.544,164.49 188.009,157.0 192.419,149.602 202.238,143.7 208.142,153.043 213.087,160.869 210.0,176.997 210.0,186.0 L 215.0,186.0 C 215.0,172.451 215.262,162.591 220.0,150.0 214.467,149.574 212.667,145.609 207.996,143.318 199.559,139.18 192.639,144.479 186.0,149.0 Z" />
	<path style="fill:#a083ed;" d="M 216.0,150.0 C 221.038,150.365 226.22,146.956 230.985,148.323 243.356,151.871 239.0,176.442 239.0,186.0 L 244.0,186.0 C 244.0,174.81 246.737,159.401 242.057,149.015 236.804,137.357 221.895,141.828 216.0,150.0 Z" />
	<path style="fill:#c1b3f4;" d="M 278.667,142.333 C 278.222,142.778 279.278,142.722 279.333,142.667 279.778,142.222 278.722,142.278 278.667,142.333 Z" />
	<path style="fill:#a083ed;" d="M 303.0,175.0 C 296.545,173.266 293.838,179.107 288.0,180.851 279.506,183.389 270.868,174.926 270.0,167.0 L 306.0,167.0 C 305.932,158.872 304.035,150.587 296.996,145.652 284.792,137.096 266.375,143.985 264.21,159.0 262.981,167.524 265.073,176.914 272.04,182.467 281.705,190.17 298.861,187.166 303.0,175.0 Z" />
	<path style="fill:#bdc9f5;" d="M 289.667,142.333 C 289.222,142.778 290.278,142.722 290.333,142.667 290.778,142.222 289.722,142.278 289.667,142.333 Z" />
	<path style="fill:#c1b3f4;" d="M 333.667,142.333 C 333.222,142.778 334.278,142.722 334.333,142.667 334.778,142.222 333.722,142.278 333.667,142.333 Z" />
	<path style="fill:#a083ed;" d="M 325.0,175.0 C 320.993,179.109 324.296,183.02 329.001,184.995 335.191,187.592 344.177,187.69 349.956,183.992 355.511,180.436 357.488,170.151 351.852,165.702 347.459,162.235 341.011,162.096 336.001,159.891 333.647,158.855 330.207,156.996 330.207,153.989 330.207,142.831 345.407,149.403 349.981,150.639 352.323,151.272 355.053,150.026 353.824,147.194 348.496,134.911 320.166,142.57 324.434,157.985 326.862,166.751 351.305,166.019 349.248,174.997 346.571,186.688 330.282,179.027 325.0,175.0 Z" />
	<path style="fill:#bdc9f5;" d="M 74.0,143.0 L 75.0,144.0 74.0,143.0 Z" />
	<path style="fill:#9ac9f3;" d="M 71.0,145.0 L 72.0,146.0 71.0,145.0 Z" />
	<path style="fill:#bdc9f5;" d="M 127.0,146.0 L 128.0,147.0 127.0,146.0 M 154.0,146.0 L 155.0,147.0 154.0,146.0 M 218.0,146.0 L 219.0,147.0 218.0,146.0 Z" />
	<path style="fill:#9ac9f3;" d="M 81.0,147.0 L 81.0,148.0 85.0,148.0 C 83.494,147.317 82.6852,147.174 81.0,147.0 Z" />
	<path style="fill:#bdc9f5;" d="M 125.333,147.667 C 125.278,147.722 125.222,148.778 125.667,148.333 125.722,148.278 125.778,147.222 125.333,147.667 Z" />
	<path style="fill:#dbd6f9;" d="M 138.0,147.0 L 138.0,148.0 143.0,148.0 C 141.231,147.221 139.964,147.088 138.0,147.0 Z" />
	<path style="fill:#99abf0;" d="M 143.667,147.333 C 143.222,147.778 144.278,147.722 144.333,147.667 144.778,147.222 143.722,147.278 143.667,147.333 Z" />
	<path style="fill:#c1b3f4;" d="M 199.0,147.0 L 199.0,148.0 202.0,148.0 C 200.752,147.315 200.452,147.251 199.0,147.0 Z" />
	<path style="fill:#bdc9f5;" d="M 217.0,147.0 L 218.0,148.0 217.0,147.0 Z" />
	<path style="fill:#c1b3f4;" d="M 228.667,147.333 C 228.222,147.778 229.278,147.722 229.333,147.667 229.778,147.222 228.722,147.278 228.667,147.333 Z" />
	<path style="fill:#dbd6f9;" d="M 281.0,147.0 L 281.0,148.0 288.0,148.0 C 285.668,147.015 283.543,147.019 281.0,147.0 M 336.0,147.0 L 336.0,148.0 342.0,148.0 C 339.948,147.126 338.253,147.047 336.0,147.0 Z" />
	<path style="fill:#c1b3f4;" d="M 342.667,147.333 C 342.222,147.778 343.278,147.722 343.333,147.667 343.778,147.222 342.722,147.278 342.667,147.333 Z" />
	<path style="fill:#ffffff;" d="M 78.0008,148.742 C 60.6422,155.402 70.2263,187.187 89.0,179.852 105.256,173.5 97.1444,141.398 78.0008,148.742 Z" />
	<path style="fill:#9ac9f3;" d="M 87.6667,148.333 C 87.2222,148.778 88.2778,148.722 88.3333,148.667 88.7778,148.222 87.7222,148.278 87.6667,148.333 Z" />
	<path style="fill:#dbd6f9;" d="M 135.667,148.333 C 135.222,148.778 136.278,148.722 136.333,148.667 136.778,148.222 135.722,148.278 135.667,148.333 M 224.667,148.333 C 224.222,148.778 225.278,148.722 225.333,148.667 225.778,148.222 224.722,148.278 224.667,148.333 Z" />
	<path style="fill:#ffffff;" d="M 270.0,161.0 L 299.0,161.0 C 298.031,143.303 271.853,143.935 270.0,161.0 Z" />
	<path style="fill:#dbd6f9;" d="M 214.667,149.333 C 214.222,149.778 215.278,149.722 215.333,149.667 215.778,149.222 214.722,149.278 214.667,149.333 Z" />
	<path style="fill:#c1b3f4;" d="M 242.333,149.667 C 242.278,149.722 242.222,150.778 242.667,150.333 242.722,150.278 242.778,149.222 242.333,149.667 M 324.333,149.667 C 324.278,149.722 324.222,150.778 324.667,150.333 324.722,150.278 324.778,149.222 324.333,149.667 Z" />
	<path style="fill:#99abf0;" d="M 157.333,150.667 C 157.278,150.722 157.222,151.778 157.667,151.333 157.722,151.278 157.778,150.222 157.333,150.667 Z" />
	<path style="fill:#dbd6f9;" d="M 243.333,151.667 C 243.278,151.722 243.222,152.778 243.667,152.333 243.722,152.278 243.778,151.222 243.333,151.667 M 323.0,151.0 L 323.0,157.0 324.0,157.0 C 323.953,154.747 323.874,153.052 323.0,151.0 Z" />
	<path style="fill:#bddef7;" d="M 127.667,152.333 C 127.222,152.778 128.278,152.722 128.333,152.667 128.778,152.222 127.722,152.278 127.667,152.333 Z" />
	<path style="fill:#bdc9f5;" d="M 158.333,152.667 C 158.278,152.722 158.222,153.778 158.667,153.333 158.722,153.278 158.778,152.222 158.333,152.667 Z" />
	<path style="fill:#c1b3f4;" d="M 208.333,152.667 C 208.278,152.722 208.222,153.778 208.667,153.333 208.722,153.278 208.778,152.222 208.333,152.667 M 329.0,152.0 L 329.0,156.0 330.0,156.0 C 329.826,154.315 329.683,153.506 329.0,152.0 Z" />
	<path style="fill:#dbd6f9;" d="M 351.667,152.333 C 351.222,152.778 352.278,152.722 352.333,152.667 352.778,152.222 351.722,152.278 351.667,152.333 Z" />
	<path style="fill:#9ac9f3;" d="M 64.3333,153.667 C 64.2778,153.722 64.2222,154.778 64.6667,154.333 64.7222,154.278 64.7778,153.222 64.3333,153.667 Z" />
	<path style="fill:#c1b3f4;" d="M 237.333,153.667 C 237.278,153.722 237.222,154.778 237.667,154.333 237.722,154.278 237.778,153.222 237.333,153.667 M 265.333,153.667 C 265.278,153.722 265.222,154.778 265.667,154.333 265.722,154.278 265.778,153.222 265.333,153.667 Z" />
	<path style="fill:#dfecfb;" d="M 152.0,154.0 C 151.779,157.006 151.545,158.365 149.0,160.0 L 149.0,161.0 153.0,161.0 C 152.981,158.457 152.985,156.332 152.0,154.0 Z" />
	<path style="fill:#99abf0;" d="M 158.0,154.0 L 158.0,180.0 159.0,180.0 C 159.0,172.239 161.008,161.169 158.0,154.0 Z" />
	<path style="fill:#dfecfb;" d="M 159.0,154.0 C 159.0,160.32 156.126,176.741 161.0,181.0 158.961,172.435 162.359,162.004 159.0,154.0 Z" />
	<path style="fill:#bddef7;" d="M 63.3333,155.667 C 63.2778,155.722 63.2222,156.778 63.6667,156.333 63.7222,156.278 63.7778,155.222 63.3333,155.667 Z" />
	<path style="fill:#dbd6f9;" d="M 188.333,155.667 C 188.278,155.722 188.222,156.778 188.667,156.333 188.722,156.278 188.778,155.222 188.333,155.667 Z" />
	<path style="fill:#bdc9f5;" d="M 209.0,155.0 L 209.0,186.0 210.0,186.0 C 210.0,176.924 212.511,163.367 209.0,155.0 Z" />
	<path style="fill:#dfecfb;" d="M 237.0,155.0 C 237.0,163.736 232.409,186.619 244.0,187.0 L 244.0,186.0 238.0,186.0 C 238.0,176.924 240.511,163.367 237.0,155.0 Z" />
	<path style="fill:#bdc9f5;" d="M 264.333,155.667 C 264.278,155.722 264.222,156.778 264.667,156.333 264.722,156.278 264.778,155.222 264.333,155.667 Z" />
	<path style="fill:#c1b3f4;" d="M 304.333,155.667 C 304.278,155.722 304.222,156.778 304.667,156.333 304.722,156.278 304.778,155.222 304.333,155.667 Z" />
	<path style="fill:#99abf0;" d="M 153.0,156.0 L 153.0,161.0 154.0,161.0 C 153.912,159.036 153.779,157.769 153.0,156.0 Z" />
	<path style="fill:#dbd6f9;" d="M 216.333,156.667 C 216.278,156.722 216.222,157.778 216.667,157.333 216.722,157.278 216.778,156.222 216.333,156.667 M 244.0,156.0 L 244.0,186.0 245.0,186.0 C 245.0,177.186 247.411,164.128 244.0,156.0 Z" />
	<path style="fill:#bdc9f5;" d="M 69.3333,157.667 C 69.2778,157.722 69.2222,158.778 69.6667,158.333 69.7222,158.278 69.7778,157.222 69.3333,157.667 Z" />
	<path style="fill:#bddef7;" d="M 97.0,157.0 L 97.0,172.0 98.0,172.0 C 98.0,167.183 98.8763,161.471 97.0,157.0 Z" />
	<path style="fill:#bdc9f5;" d="M 187.333,157.667 C 187.278,157.722 187.222,158.778 187.667,158.333 187.722,158.278 187.778,157.222 187.333,157.667 Z" />
	<path style="fill:#99abf0;" d="M 238.0,157.0 L 238.0,186.0 239.0,186.0 C 239.0,177.449 241.31,164.888 238.0,157.0 Z" />
	<path style="fill:#c1b3f4;" d="M 299.333,157.667 C 299.278,157.722 299.222,158.778 299.667,158.333 299.722,158.278 299.778,157.222 299.333,157.667 Z" />
	<path style="fill:#bdc9f5;" d="M 305.0,157.0 L 305.0,160.0 306.0,160.0 C 305.749,158.548 305.685,158.248 305.0,157.0 Z" />
	<path style="fill:#9ac9f3;" d="M 62.0,158.0 L 62.0,167.0 63.0,167.0 C 62.9983,163.874 63.2129,160.89 62.0,158.0 Z" />
	<path style="fill:#dbd6f9;" d="M 136.0,159.0 L 136.0,160.0 145.0,160.0 C 142.11,158.787 139.126,159.002 136.0,159.0 Z" />
	<path style="fill:#99abf0;" d="M 186.0,159.0 L 186.0,186.0 187.0,186.0 C 187.0,177.975 189.109,166.409 186.0,159.0 Z" />
	<path style="fill:#c1b3f4;" d="M 215.0,159.0 L 215.0,186.0 216.0,186.0 C 216.0,177.975 218.109,166.409 215.0,159.0 M 269.0,159.0 L 269.0,162.0 270.0,162.0 C 269.749,160.548 269.685,160.248 269.0,159.0 Z" />
	<path style="fill:#dbd6f9;" d="M 299.0,159.0 C 292.63,163.826 277.846,161.0 270.0,161.0 L 270.0,162.0 293.0,162.0 C 295.55,161.994 300.354,162.593 299.0,159.0 M 306.0,159.0 L 306.0,167.0 307.0,167.0 C 306.993,164.164 307.098,161.613 306.0,159.0 Z" />
	<path style="fill:#9ac9f3;" d="M 68.0,160.0 L 68.0,168.0 69.0,168.0 C 68.9928,165.165 69.0977,162.613 68.0,160.0 M 133.667,160.333 C 133.222,160.778 134.278,160.722 134.333,160.667 134.778,160.222 133.722,160.278 133.667,160.333 Z" />
	<path style="fill:#c1b3f4;" d="M 263.0,160.0 L 263.0,169.0 264.0,169.0 C 263.998,165.874 264.213,162.89 263.0,160.0 Z" />
	<path style="fill:#dbd6f9;" d="M 340.667,161.333 C 340.222,161.778 341.278,161.722 341.333,161.667 341.778,161.222 340.722,161.278 340.667,161.333 M 344.667,162.333 C 344.222,162.778 345.278,162.722 345.333,162.667 345.778,162.222 344.722,162.278 344.667,162.333 Z" />
	<path style="fill:#bdc9f5;" d="M 127.0,163.0 L 128.0,164.0 127.0,163.0 M 126.0,164.0 L 125.0,166.0 C 126.263,165.029 126.392,165.306 126.0,164.0 Z" />
	<path style="fill:#639eeb;" d="M 154.0,181.0 C 155.057,184.492 156.418,185.432 160.0,186.0 159.638,180.371 157.713,175.651 152.0,174.0 148.89,178.177 143.595,182.029 138.0,181.421 130.76,180.635 127.349,173.791 131.0,168.0 125.786,162.892 122.531,169.72 123.344,175.0 125.854,191.299 144.301,186.779 154.0,181.0 Z" />
	<path style="fill:#dbd6f9;" d="M 135.667,165.333 C 135.222,165.778 136.278,165.722 136.333,165.667 136.778,165.222 135.722,165.278 135.667,165.333 Z" />
	<path style="fill:#ffffff;" d="M 152.0,166.0 L 141.0,165.054 C 138.983,165.097 136.926,165.357 135.005,165.993 117.238,171.876 144.761,191.846 151.397,174.956 152.456,172.26 152.0,168.841 152.0,166.0 Z" />
	<path style="fill:#dbd6f9;" d="M 146.0,165.0 L 146.0,166.0 149.0,166.0 C 147.752,165.315 147.452,165.251 146.0,165.0 Z" />
	<path style="fill:#c1b3f4;" d="M 333.667,165.333 C 333.222,165.778 334.278,165.722 334.333,165.667 334.778,165.222 333.722,165.278 333.667,165.333 Z" />
	<path style="fill:#dfecfb;" d="M 152.0,166.0 L 152.0,174.0 153.0,174.0 C 152.993,171.164 153.098,168.613 152.0,166.0 Z" />
	<path style="fill:#c1b3f4;" d="M 336.667,166.333 C 336.222,166.778 337.278,166.722 337.333,166.667 337.778,166.222 336.722,166.278 336.667,166.333 Z" />
	<path style="fill:#bddef7;" d="M 62.3333,167.667 C 62.2778,167.722 62.2222,168.778 62.6667,168.333 62.7222,168.278 62.7778,167.222 62.3333,167.667 Z" />
	<path style="fill:#bdc9f5;" d="M 131.0,167.0 L 132.0,168.0 131.0,167.0 Z" />
	<path style="fill:#99abf0;" d="M 153.0,167.0 L 153.0,174.0 154.0,174.0 C 153.981,171.457 153.985,169.332 153.0,167.0 Z" />
	<path style="fill:#dfecfb;" d="M 270.0,170.0 L 271.0,170.0 C 278.268,164.494 296.98,168.0 306.0,168.0 299.671,164.353 285.439,167.0 278.0,167.0 274.47,167.0 270.855,166.008 270.0,170.0 Z" />
	<path style="fill:#c1b3f4;" d="M 340.667,167.333 C 340.222,167.778 341.278,167.722 341.333,167.667 341.778,167.222 340.722,167.278 340.667,167.333 Z" />
	<path style="fill:#9ac9f3;" d="M 123.333,168.667 C 123.278,168.722 123.222,169.778 123.667,169.333 123.722,169.278 123.778,168.222 123.333,168.667 Z" />
	<path style="fill:#84c5f2;" d="M 63.0,169.0 L 63.0,172.0 64.0,172.0 C 63.7488,170.548 63.6848,170.248 63.0,169.0 Z" />
	<path style="fill:#9ac9f3;" d="M 69.3333,169.667 C 69.2778,169.722 69.2222,170.778 69.6667,170.333 69.7222,170.278 69.7778,169.222 69.3333,169.667 Z" />
	<path style="fill:#c1b3f4;" d="M 355.0,169.0 L 355.0,177.0 356.0,177.0 C 355.993,174.164 356.098,171.613 355.0,169.0 Z" />
	<path style="fill:#dbd6f9;" d="M 122.0,170.0 L 122.0,175.0 123.0,175.0 C 122.912,173.036 122.779,171.769 122.0,170.0 Z" />
	<path style="fill:#bdc9f5;" d="M 264.333,170.667 C 264.278,170.722 264.222,171.778 264.667,171.333 264.722,171.278 264.778,170.222 264.333,170.667 Z" />
	<path style="fill:#99abf0;" d="M 270.333,170.667 C 270.278,170.722 270.222,171.778 270.667,171.333 270.722,171.278 270.778,170.222 270.333,170.667 Z" />
	<path style="fill:#9ac9f3;" d="M 128.0,171.0 L 128.0,175.0 129.0,175.0 C 128.826,173.315 128.683,172.506 128.0,171.0 Z" />
	<path style="fill:#dbd6f9;" d="M 349.0,171.0 L 349.0,177.0 350.0,177.0 C 349.953,174.747 349.874,173.052 349.0,171.0 Z" />
	<path style="fill:#c1b3f4;" d="M 271.333,172.667 C 271.278,172.722 271.222,173.778 271.667,173.333 271.722,173.278 271.778,172.222 271.333,172.667 Z" />
	<path style="fill:#bddef7;" d="M 64.3333,173.667 C 64.2778,173.722 64.2222,174.778 64.6667,174.333 64.7222,174.278 64.7778,173.222 64.3333,173.667 Z" />
	<path style="fill:#dbd6f9;" d="M 265.333,173.667 C 265.278,173.722 265.222,174.778 265.667,174.333 265.722,174.278 265.778,173.222 265.333,173.667 M 298.667,173.333 C 298.222,173.778 299.278,173.722 299.333,173.667 299.778,173.222 298.722,173.278 298.667,173.333 Z" />
	<path style="fill:#dfecfb;" d="M 302.0,174.0 L 303.0,177.0 304.0,177.0 304.0,174.0 302.0,174.0 Z" />
	<path style="fill:#bddef7;" d="M 72.0,175.0 L 73.0,176.0 72.0,175.0 Z" />
	<path style="fill:#bdc9f5;" d="M 95.0,175.0 L 96.0,176.0 95.0,175.0 M 94.0,176.0 L 95.0,177.0 94.0,176.0 M 123.333,176.667 C 123.278,176.722 123.222,177.778 123.667,177.333 123.722,177.278 123.778,176.222 123.333,176.667 M 74.0,177.0 L 75.0,178.0 74.0,177.0 M 93.0,177.0 L 94.0,178.0 93.0,177.0 Z" />
	<path style="fill:#9ac9f3;" d="M 75.0,178.0 L 76.0,179.0 75.0,178.0 Z" />
	<path style="fill:#c1b3f4;" d="M 321.333,178.667 C 321.278,178.722 321.222,179.778 321.667,179.333 321.722,179.278 321.778,178.222 321.333,178.667 Z" />
	<path style="fill:#bdc9f5;" d="M 90.0,179.0 L 91.0,180.0 90.0,179.0 Z" />
	<path style="fill:#dfecfb;" d="M 124.333,179.667 C 124.278,179.722 124.222,180.778 124.667,180.333 124.722,180.278 124.778,179.222 124.333,179.667 M 79.6667,180.333 C 79.2222,180.778 80.2778,180.722 80.3333,180.667 80.7778,180.222 79.7222,180.278 79.6667,180.333 Z" />
	<path style="fill:#9ac9f3;" d="M 87.6667,180.333 C 87.2222,180.778 88.2778,180.722 88.3333,180.667 88.7778,180.222 87.7222,180.278 87.6667,180.333 Z" />
	<path style="fill:#c1b3f4;" d="M 322.0,180.0 L 323.0,181.0 322.0,180.0 Z" />
	<path style="fill:#dbd6f9;" d="M 333.667,180.333 C 333.222,180.778 334.278,180.722 334.333,180.667 334.778,180.222 333.722,180.278 333.667,180.333 Z" />
	<path style="fill:#bddef7;" d="M 69.0,181.0 L 70.0,182.0 69.0,181.0 M 96.0,181.0 C 96.6479,183.709 96.9417,186.216 97.0,189.0 L 98.0,189.0 C 97.9897,185.906 98.4089,183.104 96.0,181.0 Z" />
	<path style="fill:#9ac9f3;" d="M 136.0,181.0 L 136.0,182.0 141.0,182.0 C 139.231,181.221 137.964,181.088 136.0,181.0 Z" />
	<path style="fill:#99abf0;" d="M 152.667,181.333 C 152.222,181.778 153.278,181.722 153.333,181.667 153.778,181.222 152.722,181.278 152.667,181.333 M 160.0,181.0 L 160.0,186.0 161.0,186.0 C 160.912,184.036 160.779,182.769 160.0,181.0 Z" />
	<path style="fill:#c1b3f4;" d="M 283.0,181.0 L 283.0,182.0 287.0,182.0 C 285.494,181.317 284.685,181.174 283.0,181.0 M 338.667,181.333 C 338.222,181.778 339.278,181.722 339.333,181.667 339.778,181.222 338.722,181.278 338.667,181.333 Z" />
	<path style="fill:#bdc9f5;" d="M 126.0,182.0 L 127.0,183.0 126.0,182.0 Z" />
	<path style="fill:#dfecfb;" d="M 151.0,182.0 L 151.0,183.0 154.0,184.0 C 153.02,182.217 153.092,182.406 151.0,182.0 Z" />
	<path style="fill:#bdc9f5;" d="M 273.0,183.0 L 274.0,184.0 273.0,183.0 Z" />
	<path style="fill:#bddef7;" d="M 73.0,184.0 L 74.0,185.0 73.0,184.0 Z" />
	<path style="fill:#84c5f2;" d="M 75.6667,185.333 C 75.2222,185.778 76.2778,185.722 76.3333,185.667 76.7778,185.222 75.7222,185.278 75.6667,185.333 Z" />
	<path style="fill:#dfecfb;" d="M 89.6667,185.333 C 89.2222,185.778 90.2778,185.722 90.3333,185.667 90.7778,185.222 89.7222,185.278 89.6667,185.333 M 145.667,185.333 C 145.222,185.778 146.278,185.722 146.333,185.667 146.778,185.222 145.722,185.278 145.667,185.333 Z" />
	<path style="fill:#9ac9f3;" d="M 78.0,186.0 L 78.0,187.0 81.0,187.0 C 79.7516,186.315 79.4516,186.251 78.0,186.0 M 84.6667,186.333 C 84.2222,186.778 85.2778,186.722 85.3333,186.667 85.7778,186.222 84.7222,186.278 84.6667,186.333 Z" />
	<path style="fill:#bddef7;" d="M 86.6667,186.333 C 86.2222,186.778 87.2778,186.722 87.3333,186.667 87.7778,186.222 86.7222,186.278 86.6667,186.333 Z" />
	<path style="fill:#9ac9f3;" d="M 133.667,186.333 C 133.222,186.778 134.278,186.722 134.333,186.667 134.778,186.222 133.722,186.278 133.667,186.333 M 139.0,186.0 L 139.0,187.0 142.0,187.0 C 140.752,186.315 140.452,186.251 139.0,186.0 Z" />
	<path style="fill:#dfecfb;" d="M 157.0,186.0 L 157.0,187.0 161.0,187.0 C 159.494,186.317 158.685,186.174 157.0,186.0 M 209.0,186.0 L 209.0,187.0 216.0,187.0 C 213.668,186.015 211.543,186.019 209.0,186.0 Z" />
	<path style="fill:#c1b3f4;" d="M 280.0,186.0 L 280.0,187.0 283.0,187.0 C 281.752,186.315 281.452,186.251 280.0,186.0 M 287.0,186.0 L 287.0,187.0 290.0,187.0 C 288.752,186.315 288.452,186.251 287.0,186.0 M 333.0,186.0 L 333.0,187.0 336.0,187.0 C 334.752,186.315 334.452,186.251 333.0,186.0 M 342.667,186.333 C 342.222,186.778 343.278,186.722 343.333,186.667 343.778,186.222 342.722,186.278 342.667,186.333 Z" />
	<path style="fill:#bddef7;" d="M 103.333,189.667 C 103.278,189.722 103.222,190.778 103.667,190.333 103.722,190.278 103.778,189.222 103.333,189.667 Z" />
	<path style="fill:#84c5f2;" d="M 66.6667,190.333 C 66.2222,190.778 67.2778,190.722 67.3333,190.667 67.7778,190.222 66.7222,190.278 66.6667,190.333 Z" />
	<path style="fill:#a2ddf6;" d="M 63.3333,192.667 C 63.2778,192.722 63.2222,193.778 63.6667,193.333 63.7222,193.278 63.7778,192.222 63.3333,192.667 M 69.0,192.0 L 70.0,193.0 69.0,192.0 Z" />
	<path style="fill:#bddef7;" d="M 102.333,192.667 C 102.278,192.722 102.222,193.778 102.667,193.333 102.722,193.278 102.778,192.222 102.333,192.667 M 71.0,194.0 L 72.0,195.0 71.0,194.0 Z" />
	<path style="fill:#9ac9f3;" d="M 91.0,196.0 L 92.0,197.0 91.0,196.0 Z" />
	<path style="fill:#bddef7;" d="M 66.0,197.0 L 67.0,198.0 66.0,197.0 Z" />
	<path style="fill:#84c5f2;" d="M 88.6667,197.333 C 88.2223,197.778 89.2778,197.722 89.3333,197.667 89.7778,197.222 88.7222,197.278 88.6667,197.333 Z" />
	<path style="fill:#9ac9f3;" d="M 99.0,197.0 L 100.0,198.0 99.0,197.0 Z" />
	<path style="fill:#bddef7;" d="M 67.0,198.0 L 68.0,199.0 67.0,198.0 Z" />
	<path style="fill:#9ac9f3;" d="M 81.0,198.0 L 81.0,199.0 85.0,199.0 C 83.494,198.317 82.6852,198.174 81.0,198.0 M 98.0,198.0 L 99.0,199.0 98.0,198.0 Z" />
	<path style="fill:#bdc9f5;" d="M 97.0,199.0 L 98.0,200.0 97.0,199.0 Z" />
	<path style="fill:#bddef7;" d="M 71.0,201.0 L 72.0,202.0 71.0,201.0 Z" />
	<path style="fill:#84c5f2;" d="M 73.6667,202.333 C 73.2222,202.778 74.2778,202.722 74.3333,202.667 74.7778,202.222 73.7222,202.278 73.6667,202.333 Z" />
	<path style="fill:#bddef7;" d="M 91.6667,202.333 C 91.2222,202.778 92.2778,202.722 92.3333,202.667 92.7778,202.222 91.7222,202.278 91.6667,202.333 M 76.0,203.0 L 76.0,204.0 79.0,204.0 C 77.7517,203.315 77.4516,203.251 76.0,203.0 Z" />
	<path style="fill:#9ac9f3;" d="M 86.0,203.0 L 86.0,204.0 89.0,204.0 C 87.7516,203.315 87.4516,203.251 86.0,203.0 Z" />
</g>
</svg>